Patient4_TMGait_0pt7_01_right_30_EMG.mot
version=1
nRows=37
nColumns=33
inDegrees=no
endheader
time	1LAddLong	2LGlutMax	3LGlutMed	4LIliopsoas	5LSemiMemb	6LBicFemLong	7LRecFem	8LVastMed	9LVastLat	10LGasMed	11LTibAnt	12lTibPost	13LPeroneusLong	14LSol	15LExtDigLong	16LFlexDigLong	17RAddLong	18RGlutMax	19RGlutMed	20RIliopsoas	21RSemiMemb	22RBicFemLong	23RRecFem	24RVastMed	25RVastLat	26RGasMed	27RTibAnt	28RTibPost	29RPeroneusLong	30RSol	31RExtDigLong	32RFlexDigLong
34.03	-0.003052	0.017853	-0.14175	0.029297	0.001526	-0.037842	0.091248	-0.018158	0.27832	-0.56885	0.018616	0.030365	-0.009003	-0.7991	0.15243	-0.46265	0.23789	-0.34027	-0.14984	-0.14694	0.028381	-0.17914	0.55191	-0.049133	-0.009918	-0.013123	0.07309	-0.00061	0.018463	0	0.001526	-0.028229
34.031	0.00885	0.090179	-0.035095	0.014191	0.014954	-0.063782	0.068359	-0.058746	0.13687	-0.70206	0.018158	0.14481	-0.019531	-0.46371	0.13168	-0.35034	0.2182	-0.27435	-0.10162	-0.15198	-0.063324	-0.12482	0.7898	-0.14191	-0.018463	-0.010834	0.066681	-0.003052	0.000305	-0.029449	0.000305	-0.030212
34.032	0.00473	0.084229	0.041351	0.011444	0.033112	-0.033112	0.16022	-0.053711	-0.16434	-0.38727	0.032654	0.18509	-0.07843	0.1387	0.10529	-0.21591	0.20218	-0.24704	0.11566	-0.14328	-0.095367	-0.13901	0.77927	-0.075684	-0.013428	-0.011597	0.041351	-0.005341	-0.049286	-0.060883	-0.002594	-0.025024
34.033	-0.018616	0.06073	0.020142	-0.004272	0.008698	0.00885	0.14435	-0.023651	-0.18921	-0.15457	0.021667	-0.11566	-0.084686	0.31632	0.078735	-0.26337	0.058441	-0.25696	0.12985	-0.23025	-0.02655	-0.14175	0.40817	-0.079498	-0.002136	-0.010529	0.055847	0.002441	0.031433	-0.047455	0.000763	-0.018768
34.034	-0.017548	0.11444	0.032043	-0.004272	-0.028381	0.041962	0.1471	-0.012054	-0.13077	-0.072174	0.054474	-0.0354	-0.090637	0.61249	0.10162	0.31204	-0.098267	-0.17761	0.22415	-0.21896	0.12482	-0.16052	-0.06958	-0.018158	0.024109	-0.018921	0.091858	-0.003357	0.089111	-0.041046	-0.001678	-0.025635
34.035	-0.023499	0.14008	-0.010986	-0.011444	-0.079346	0.044708	0.14847	-0.010071	-0.10437	0.001373	0.007782	-0.05249	-0.02533	0.77331	0.070343	0.072784	-0.16495	-0.14893	-0.12238	-0.13123	0.13611	-0.13123	-0.24384	-0.006866	0.050812	-0.029755	0.23743	-0.000153	-0.028076	-0.029449	0.001678	-0.026855
34.036	-0.010681	0.14389	-0.00412	-0.014801	-0.061188	0.049744	0.12543	-0.00946	-0.074005	0.050659	0.051727	-0.00946	-0.00061	0.45349	0.011597	0.42755	-0.12039	-0.14954	-0.3566	0.074005	0.015106	-0.11261	-0.46448	-0.15961	0.049744	-0.032806	0.36743	-0.002441	-0.026855	0.027618	0.001526	-0.032654
34.037	0.017395	0.14633	0.00412	0.013123	0.026245	0.035095	0.090179	0.000153	-0.053711	0.084534	0.32989	-0.008392	-0.013428	0.60394	0.051575	-0.42908	-0.00061	-0.17975	-0.3157	0.14816	-0.079803	-0.16739	-0.65002	-0.2742	0.007782	-0.028229	0.3746	-0.000458	0.14664	0.01297	-0.001526	-0.035858
34.038	0.011292	0.10864	-0.050812	0.018463	0.096436	0.032196	0.06958	0.008392	-0.041046	0.17975	0.57007	-0.00824	-0.066986	0.89416	0.9285	-0.41031	0.059509	-0.25101	-0.33356	0.13779	-0.10254	-0.16602	-1.1012	-0.28244	-0.024261	-0.015259	0.29617	-0.001984	0.19363	-0.047913	-0.001831	-0.041962
34.039	0.009766	0.1062	-0.043335	0.007782	0.07843	-0.087585	0.19012	0.005646	-0.16678	0.19028	0.35126	-0.004425	0.003052	1.156	1.0817	0.49255	0.041504	-0.28732	-0.25894	0.11887	-0.090637	-0.19226	-1.1388	-0.21332	-0.028839	-0.015869	-0.15915	0.002136	0.14114	-0.066376	-0.002747	-0.037079
34.04	0.00824	0.12039	-0.005951	0.015411	0.051575	0.009766	0.21515	0.003052	-0.22919	0.082855	-0.41122	-0.00351	0.23148	1.1264	0.1915	0.50491	-0.007935	-0.29251	-0.46005	0.036621	-0.11078	-0.21484	-0.72937	-0.20798	-0.040436	-0.019531	-0.50797	-0.003357	-0.028381	-0.044556	0.003967	-0.015564
34.041	0.003357	0.12085	-0.016327	0.007019	0.021667	0.049896	0.17517	-0.000763	-0.15366	0.15045	-0.36987	0.002899	0.19486	0.74799	0.083618	-0.36041	-0.04425	-0.24368	0.45197	-0.015259	-0.040741	-0.24155	-0.33844	-0.12116	-0.017242	-0.02243	-0.43778	0.001678	-0.083923	-0.07431	-0.004883	-0.04303
34.042	0.011139	0.20691	-0.007172	0.009613	0.014801	-0.014343	0.1091	0.000305	-0.069733	0.046234	-0.21713	-0.006104	0.041351	0.26276	-0.5455	-0.019531	-0.064545	-0.16571	1.2273	-0.012817	-0.09613	-0.25314	-0.072937	0.044861	-0.017548	-0.0177	-0.016022	-0.002747	-0.12161	-0.10407	-0.002289	-0.053253
34.043	-0.00351	0.20721	-0.033264	-0.000916	0.002441	-0.036011	0.067596	0.006104	-0.015411	-0.27527	-0.19577	-0.006866	0.093842	0.31464	-0.49606	0.34195	-0.13763	-0.17822	1.0985	0.061646	-0.11536	-0.19318	0.1239	0.23987	0.021667	-0.017395	0.039825	-0.009766	-0.18005	-0.085907	0.000153	-0.02655
34.044	0.006866	0.18784	-0.011292	0.007935	-0.028687	-0.027008	0.03479	0.004883	0.022736	-0.18204	-0.17166	-0.007935	0.038605	0.11444	-0.81848	0.35385	-0.15457	-0.32044	0.082703	0.093689	0.25833	-0.01358	0.4039	0.31937	0.061493	-0.017242	-0.016937	-0.002289	-0.23361	-0.052948	-0.001068	-0.050201
34.045	-0.003204	0.17761	-0.025787	0.005035	-0.032959	-0.027771	0.09903	0.006104	-0.016327	-0.001221	-0.13931	-0.009918	-0.036621	-0.34531	-0.96527	0.59021	-0.1178	-0.36392	-0.031433	0.062256	0.24216	0.12726	0.59143	0.30624	0.071106	-0.018158	-0.12283	-0.002594	-0.14206	-0.053864	-0.00412	-0.084076
34.046	-0.006256	0.1915	-0.040741	0.002136	-0.009918	-0.18997	0.20218	0.007019	-0.11337	0.17868	-0.13153	-0.001526	-0.025177	-0.87494	-0.99457	0.5864	-0.11292	-0.32196	-0.32883	0.008087	0.21362	0.12192	0.62347	0.28992	0.10941	-0.021667	-0.061493	-0.008087	-0.13016	-0.035706	-0.006409	-0.097961
34.047	-0.013733	0.22949	-0.050964	0.003662	-0.026245	-0.063171	0.26688	0.012817	-0.27405	0.28244	-0.15762	-0.00473	0.12451	-1.4569	-0.53345	-0.41977	-0.08728	-0.27817	-0.44296	0.041046	0.35095	0.15167	0.54916	0.15106	0.086517	-0.017395	-0.14008	-0.00351	-0.012207	-0.005951	0.000763	-0.12222
34.048	-0.001221	0.23834	-0.054779	-0.002594	-0.078125	-0.095215	0.27008	0.016174	-0.27542	0.10071	0.019989	-0.003052	0.090485	-1.0858	0.093536	-0.81497	-0.028381	-0.33905	-0.38986	0.052032	0.19821	0.045929	0.39566	0.077362	0.043793	-0.017395	-0.38315	-0.001373	0.13092	0.02655	-0.003662	-0.12589
34.049	0.02182	0.21225	-0.077209	0.007324	-0.045624	-0.16205	0.26489	0.022583	-0.18433	-0.1561	0.23132	-0.004425	-0.13367	-0.65857	0.14053	-0.29251	0.001831	-0.27359	-0.25299	0.083466	0.13397	-0.010223	0.30167	0.028839	0.032806	-0.018768	-0.26901	-0.005951	0.17487	0.03418	-0.007477	-0.12466
34.05	0.022583	0.1889	-0.088959	0.021667	0.078735	-0.10696	0.15549	0.02594	-0.078125	-0.066681	0.22171	0.014191	-0.1741	-0.42557	0.14389	0.44907	0.005035	-0.32135	-0.31601	0.12405	0.10605	0.00351	0.28519	0.001373	0.019684	-0.021973	0.028229	0.005188	0.12009	0.031281	-0.004425	-0.12848
34.051	0.026093	0.18188	-0.095367	0.028839	0.1416	-0.044861	0.031586	0.015869	-0.000153	-0.068817	-0.12039	0.020905	-0.22003	-0.24353	0.097961	-1.0823	0.022888	-0.34271	-0.13001	0.12161	0.076599	-0.014801	0.26001	-0.063934	0.027466	-0.018005	0.16251	-0.003815	0.065308	0.020599	-0.002441	-0.10834
34.052	0.01358	0.18585	-0.086517	0.014038	0.061188	0.012054	-0.10193	0.016785	0.051575	-0.16205	-0.044556	-0.04425	-0.092468	-0.24902	0.13916	-0.054016	0.04425	-0.25162	-0.34393	0.031738	0.051727	0.018768	0.27863	-0.11063	0.039063	-0.015259	0.15045	-0.005188	0.018768	-0.027924	-0.002441	-0.098114
34.053	0.017548	0.19043	-0.12985	0.016785	0.040894	-0.013123	-0.15869	-0.027924	0.11643	-0.075073	0.025177	0.24292	0.10696	-0.15442	0.32455	0.44266	0.13947	-0.2272	-0.66925	0.095825	0.018921	-0.027313	0.29434	-0.14206	0.017853	-0.021515	0.22354	-0.006256	-0.17212	-0.015564	-0.008698	-0.085144
34.054	0.002441	0.18234	-0.17685	-0.001526	0.03418	-0.010071	0.001984	-0.032043	0.081177	0.25375	-0.064087	0.25604	0.14282	0.25192	0.22705	0.17181	0.1326	-0.20783	-0.97595	-0.035248	0.008087	-0.057678	0.41748	-0.21469	0.008087	-0.026093	0.25299	-0.001373	-0.18448	0.022736	-0.003967	-0.061798
34.055	-0.002747	0.17197	-0.14374	-0.005035	0.014648	0.009918	0.14938	-0.01236	0.019379	0.38666	-0.076904	-0.17288	0.15137	0.39414	0.08667	-0.23743	0.11581	-0.20447	-0.95062	-0.15991	0.018005	-0.040741	0.62363	-0.26199	0.016785	-0.018311	0.2388	-0.009766	-0.11917	0.043182	-0.006714	-0.045929
34.056	-0.00351	0.16113	0.010223	-0.0177	0.011292	0.023193	0.17502	-0.010223	-0.054779	0.38574	-0.042114	-0.14358	0.14954	0.24597	0.336	0.24216	0.051117	-0.19501	0.18951	-0.29923	0.035858	0.006866	0.66666	-0.29007	0.009003	-0.023346	0.18906	-0.003357	-0.10605	0.044403	-0.005951	-0.037537
34.057	-0.003204	0.19012	0.13672	-0.007477	0.008545	0.01236	0.12085	-0.019073	-0.05722	0.55969	0.023041	0.056763	0.1181	0.31281	0.29526	0.23544	-0.005035	-0.17288	0.85678	-0.3125	0.022278	-0.011292	0.51849	-0.32394	-0.011139	-0.021057	0.15076	-0.003052	-0.12299	0.010681	-0.010986	-0.026703
34.058	-0.001678	0.19257	0.12772	-0.002441	0.008087	0.011139	0.07843	0.00061	-0.019836	0.46432	-0.034027	0.37872	0.10346	0.28961	0.22553	-0.29923	-0.063171	-0.25742	-0.27451	-0.1709	0.024109	-0.018005	0.11337	-0.40314	-0.059052	-0.004883	-0.066528	-0.006409	-0.054321	-0.02182	-0.01236	-0.014343
34.059	0.010223	0.20523	0.049133	0.002289	0.004425	0.045319	0.029907	-0.005951	-0.12436	-0.081787	-0.077057	-0.13077	0.00351	0.20035	0.18784	0	-0.084076	-0.35248	-0.20706	-0.15167	0.031128	-0.027313	-0.10147	-0.43564	-0.071259	-0.006714	-0.14801	-0.008087	-0.043945	-0.008087	-0.008545	-0.000458
34.06	-0.002289	0.24307	-0.036316	0.005798	0.011139	0.075073	0.075226	0.01236	-0.094604	-0.41611	-0.089111	-0.14374	-0.018768	0.25375	-0.10757	0.1976	-0.029755	-0.3154	-0.18417	-0.086212	0.025787	-0.088196	-0.1384	-0.37918	-0.029602	-0.015869	-0.080719	-0.007935	-0.09491	-0.033112	-0.007935	0.017548
34.061	-0.00473	0.23712	0.019989	-0.007324	0.001068	0.09079	0.14206	0.005035	-0.00412	0.005188	0.099487	-0.021515	-0.03418	-0.24597	-0.057678	0.30563	0.081329	-0.24994	-0.49377	0.33188	-0.011139	-0.14832	-0.37003	-0.3447	-0.031738	-0.016022	0.039978	-0.006256	-0.039673	-0.028381	-0.007782	0.03067
34.062	-0.007935	0.27954	0.10544	0.007782	0.004578	0.14343	0.1976	0.003662	-0.014801	0.019073	0.069122	-0.033875	0.072937	-0.58411	-0.12802	-0.22201	0.10574	-0.26718	-0.39017	0.62057	-0.030212	-0.168	-0.53451	-0.26581	-0.041351	-0.022888	0.13794	-0.007324	0.016785	-0.007019	-0.012817	0.034485
34.063	-0.003967	0.26108	0.10498	0.007782	-0.008087	0.14908	0.15259	0.023499	-0.062561	0.053406	-0.29968	-0.039215	0.090027	-0.62653	-0.001678	-0.018311	0.086823	-0.19623	-0.59967	0.51529	-0.011139	-0.15915	-0.81833	-0.074158	-0.02182	-0.024109	0.1268	-0.00946	0.26169	-0.014648	-0.007782	0.041199
34.064	-0.005798	0.2858	0.033417	0.001068	-0.003967	0.04837	0.064392	0.013733	-0.13886	0.13763	-0.16739	-0.040894	0.011139	-0.3447	1.037	-0.1033	0.042419	-0.14938	-0.8696	0.24323	-0.027466	-0.14038	-0.67856	-0.005798	0.022583	-0.011749	0.003357	-0.011139	1.1832	-0.044861	-0.007324	0.047455
34.065	-0.003815	0.26413	0.040741	0.00885	0.003357	-0.24323	0.049591	-0.000153	-0.12787	0.18845	0.15152	-0.040283	0.009766	0.024872	0.46585	-0.19959	0.031281	-0.13992	-0.8197	0.02243	-0.042419	-0.13641	-0.34576	0.062103	0.054932	-0.011597	-0.045166	-0.009613	0.69977	-0.039673	-0.007782	0.050812
34.066	0.000305	0.25299	0.007324	0.003204	0.000916	-0.16144	0.065918	0.002289	-0.10269	-0.40207	0.27435	-0.014343	-0.010071	0.31448	1.1557	0.61035	0.013733	-0.14053	-0.67963	-0.14404	-0.12253	-0.11459	-0.103	0.15732	0.09964	-0.00885	-0.041199	-0.009918	-0.81009	-0.071716	-0.015259	0.057526
